<?xml version="1.0" encoding="UTF-8" standalone="no"?>
<svg
   width="16"
   height="16"
   fill="none"
   version="1.1"
   id="svg1"
   sodipodi:docname="SimpleNotificationLogo.svg"
   inkscape:version="1.4.2 (f4327f4, 2025-05-13)"
   inkscape:export-filename="C:\Users\camil\Documents\PARA\Projects\BlessedSleepStudio\SweetFunctionalities\SimpleNotifications\media\NotificationPanel.png"
   inkscape:export-xdpi="1536"
   inkscape:export-ydpi="1536"
   xmlns:inkscape="http://www.inkscape.org/namespaces/inkscape"
   xmlns:sodipodi="http://sodipodi.sourceforge.net/DTD/sodipodi-0.dtd"
   xmlns="http://www.w3.org/2000/svg"
   xmlns:svg="http://www.w3.org/2000/svg">
  <defs
     id="defs1" />
  <sodipodi:namedview
     id="namedview1"
     pagecolor="#505050"
     bordercolor="#ffffff"
     borderopacity="1"
     inkscape:showpageshadow="0"
     inkscape:pageopacity="0"
     inkscape:pagecheckerboard="1"
     inkscape:deskcolor="#505050"
     inkscape:zoom="50.9375"
     inkscape:cx="6.409816"
     inkscape:cy="7.391411"
     inkscape:window-width="1920"
     inkscape:window-height="1017"
     inkscape:window-x="1912"
     inkscape:window-y="-8"
     inkscape:window-maximized="1"
     inkscape:current-layer="svg1"
     showguides="true" />
  <path
     fill="#e0e0e0"
     d="m 12.46543,1.1667791 a 3,3 0 0 0 -4.061001,1.517 l -1.726,3.607 c 0,0 -0.864,1.804 -1.668,1.3 a 1.1088016,1.1088016 0 0 0 -0.958,1.9999996 l 9.020001,4.3180003 a 1.1085857,1.1085857 0 0 0 0.957,-2 c -0.902,-0.432 -0.038,-2.2360003 -0.038,-2.2360003 l 1.727,-3.6079996 a 3,3 0 0 0 -1.41,-4 1.0250674,1.0250674 0 0 0 -1.843,-0.898 z M 8.710429,12.371779 a 1.352,1.352 0 1 0 2.438001,1.167 z"
     id="path2"
     style="fill:#e0e0e0;fill-opacity:1" />
  <path
     fill="#e0e0e0"
     d="m 9.0494785,1.795 a 3,3 0 0 0 -4.061,1.517 l -1.726,3.607 c 0,0 -0.864,1.804 -1.668,1.3 a 1.1088016,1.1088016 0 0 0 -0.958,2 l 9.02,4.318 a 1.108586,1.108586 0 0 0 0.9570015,-2 c -0.9020015,-0.432 -0.038,-2.236 -0.038,-2.236 l 1.727,-3.608 a 3,3 0 0 0 -1.41,-4 A 1.0250682,1.0250682 0 0 0 9.0494785,1.795 Z M 5.2944785,13 a 1.352,1.352 0 1 0 2.438,1.167 z"
     id="path1"
     style="fill:#8eef97;fill-opacity:1" />
</svg>
