<?xml version="1.0" encoding="UTF-8" standalone="no"?>
<svg
   width="16"
   height="16"
   fill="none"
   version="1.1"
   id="svg1"
   sodipodi:docname="NotificationPanel.svg"
   inkscape:version="1.4.2 (f4327f4, 2025-05-13)"
   xmlns:inkscape="http://www.inkscape.org/namespaces/inkscape"
   xmlns:sodipodi="http://sodipodi.sourceforge.net/DTD/sodipodi-0.dtd"
   xmlns="http://www.w3.org/2000/svg"
   xmlns:svg="http://www.w3.org/2000/svg">
  <defs
     id="defs1" />
  <sodipodi:namedview
     id="namedview1"
     pagecolor="#505050"
     bordercolor="#ffffff"
     borderopacity="1"
     inkscape:showpageshadow="0"
     inkscape:pageopacity="0"
     inkscape:pagecheckerboard="1"
     inkscape:deskcolor="#505050"
     inkscape:zoom="50.9375"
     inkscape:cx="8"
     inkscape:cy="8"
     inkscape:window-width="1920"
     inkscape:window-height="1017"
     inkscape:window-x="1912"
     inkscape:window-y="-8"
     inkscape:window-maximized="1"
     inkscape:current-layer="svg1" />
  <path
     fill="#e0e0e0"
     d="M10.755 1.795a3 3 0 0 0-4.061 1.517L4.968 6.919s-.864 1.804-1.668 1.3a1 1 0 0 0-.958 2l9.02 4.318a1 1 0 0 0 .957-2c-.902-.432-.038-2.236-.038-2.236l1.727-3.608a3 3 0 0 0-1.41-4 1 1 0 0 0-1.843-.898zM7 13a1.352 1.352 0 1 0 2.438 1.167z"
     id="path1"
     style="fill:#8eef97;fill-opacity:1" />
</svg>
